<svg width="26" height="26" viewBox="0 0 26 26" fill="none" xmlns="http://www.w3.org/2000/svg">
<g clip-path="url(#clip0_503_3483)">
<path d="M16.5818 11.044L15.2861 0.486346L15.2612 0.283998C15.247 0.188149 15.2364 0.0958493 15.2186 0H7.5791C7.5862 0.120699 7.58975 0.241398 7.60395 0.365647L9.62389 16.7985L10.7528 25.9823V26.0036H18.4207L16.5818 11.0475V11.044Z" fill="white"/>
<path d="M11.044 9.41811L0.486346 10.7139L0.283998 10.7387C0.188149 10.7529 0.0922993 10.7635 0 10.7848V18.4208C0.120699 18.4137 0.241398 18.4102 0.365647 18.396L16.7985 16.3761L25.9823 15.2472H26.0035V7.57922L11.0475 9.41811H11.044Z" fill="white"/>
</g>
<defs>
<clipPath id="clip0_503_3483">
<rect width="26" height="26" fill="white"/>
</clipPath>
</defs>
</svg>
