<svg width="70" height="86" viewBox="0 0 70 86" fill="none" xmlns="http://www.w3.org/2000/svg">
<mask id="mask0_847_3050" style="mask-type:alpha" maskUnits="userSpaceOnUse" x="0" y="0" width="70" height="86">
<path d="M0 0H70V67.2544L35 86L0 67.2544V0Z" fill="#D9D9D9"/>
</mask>
<g mask="url(#mask0_847_3050)">
<path d="M-20.232 31.6439L18.1806 31.6426L66.8344 -3.90104C67.2042 -4.16634 67.5758 -4.40197 67.954 -4.62588L67.9212 -4.68445L21.8724 -4.6901L-22.4473 27.6965L-20.2254 31.6556L-20.232 31.6439Z" fill="#FFD543"/>
<path d="M-40.5621 -4.58022L-22.4516 27.6897L21.8681 -4.69696L-38.5457 -4.71058C-39.2306 -4.71632 -39.9006 -4.66896 -40.5687 -4.59193L-40.5621 -4.58022Z" fill="#FFD543"/>
<path d="M84.6157 28.6737L85.2147 28.236C85.494 28.0206 85.7685 27.8232 86.0412 27.5961L67.957 -4.62695C67.5854 -4.39133 67.2072 -4.16741 66.8374 -3.90212L18.1901 31.6533L74.9164 31.6452C78.5437 31.6388 81.8696 30.5409 84.627 28.6675L84.6157 28.6737Z" fill="#FFD543"/>
<path d="M99.4578 51.505L53.3506 51.5009L9.07611 83.8626L11.3112 87.8451L119.856 87.8511L99.4578 51.505Z" fill="#FFD543"/>
<path d="M-9.05977 51.553L9.077 83.8698L53.3515 51.5081L-8.99844 51.5038L-9.05977 51.553Z" fill="#FFD543"/>
<path d="M-9.05977 51.553L9.077 83.8698L53.3515 51.5081L-8.99843 51.5038L-9.05977 51.553Z" fill="#FFCD1F"/>
<path d="M74.9093 31.6435L18.1765 31.6399L-9.01086 51.5107L53.3391 51.515L84.5972 28.6783C81.8464 30.5634 78.5205 31.6613 74.8866 31.656L74.9093 31.6435Z" fill="#FFD543"/>
<path d="M84.6157 28.6737L85.2147 28.236C85.494 28.0206 85.7685 27.8232 86.0412 27.5961L67.957 -4.62695C67.5854 -4.39133 67.2072 -4.16741 66.8374 -3.90212L18.1901 31.6533L74.9164 31.6452C78.5437 31.6388 81.8696 30.5409 84.627 28.6675L84.6157 28.6737Z" fill="#FFCD1F"/>
<path d="M-38.542 -4.71611L21.8651 -4.71418L46.1524 -22.4642C54.0356 -28.2227 55.5892 -39.5556 49.6111 -47.778C43.6284 -55.9825 32.3883 -57.9746 24.5052 -52.2161L-40.5914 -4.6443L-40.5651 -4.59745C-39.8969 -4.67448 -39.227 -4.72184 -38.542 -4.71611Z" fill="#FFD543"/>
<path d="M-40.5621 -4.58021L-22.4516 27.6897L21.8681 -4.69696L-38.5457 -4.71058C-39.2306 -4.71632 -39.9006 -4.66896 -40.5687 -4.59193L-40.5621 -4.58021Z" fill="#FFCD1F"/>
<path d="M46.5369 35.1825L55.7274 40.776C54.7858 37.4095 53.8444 34.038 52.9027 30.6714L38.2654 11.4179L31.8995 15.9289L46.5369 35.1825Z" fill="#FFF8E1"/>
<path d="M54.6719 37.0137C55.0222 38.2671 55.3748 39.5236 55.7252 40.7771C54.5837 40.0842 53.4426 39.3865 52.3011 38.6937L54.6719 37.0137Z" fill="#FFC600"/>
<path d="M20.5564 58.7379L18.2943 69.1907C21.1834 67.1899 24.0773 65.1879 26.9664 63.1871L40.4102 43.0964L34.0002 38.6472L20.5564 58.7379Z" fill="#FFF8E1"/>
<path d="M21.5195 66.9531C20.4437 67.6978 19.3658 68.4456 18.29 69.1903C18.5692 67.8927 18.8531 66.5938 19.1323 65.2962L21.5195 66.9531Z" fill="#FCE184"/>
</g>
</svg>
