<svg width="77" height="87" viewBox="0 0 77 87" fill="none" xmlns="http://www.w3.org/2000/svg">
<path d="M0 0H70V66.6608L35 86L0 66.6608V0Z" fill="#FCE184"/>
<mask id="mask0_847_3026" style="mask-type:alpha" maskUnits="userSpaceOnUse" x="0" y="0" width="70" height="87">
<path d="M0 0H69.559V66.4818L34.7795 86.6443L0 66.4818V0Z" fill="#D9D9D9"/>
</mask>
<g mask="url(#mask0_847_3026)">
<path d="M-7.77009 51.1182L9.24145 19.5668L7.0171 1.6779C6.29654 -4.12768 0.947149 -8.26125 -4.93483 -7.5491C-10.809 -6.82921 -14.9914 -1.54227 -14.2708 4.26331L-8.31051 52.2096H-8.27918C-8.13037 51.8381 -7.9659 51.4743 -7.77009 51.1182Z" fill="#FFD543"/>
<path d="M42.7433 2.51732L26.7656 32.149L29.2563 52.1744L46.8161 19.6089L43.9573 -3.41211C44.1453 -1.42273 43.7693 0.636314 42.7433 2.5328V2.51732Z" fill="#FFD543"/>
<path d="M15.9543 52.213L26.7706 32.1489L22.3219 -3.68317C22.2906 -3.9541 22.2749 -4.21728 22.2671 -4.48047H22.2279L9.25781 19.5701L13.3149 52.213H15.9622H15.9543Z" fill="#FFD543"/>
<path d="M-8.26951 52.2141H13.3082L9.25112 19.5713L-7.76825 51.1227C-7.96406 51.4788 -8.12853 51.8426 -8.27734 52.2141H-8.26951Z" fill="#FFD543"/>
<path d="M-8.26951 52.2141H13.3082L9.25112 19.5713L-7.76825 51.1227C-7.96406 51.4788 -8.12853 51.8426 -8.27734 52.2141H-8.26951Z" fill="#FFCD1F"/>
<path d="M43.9608 -3.42145L43.906 -3.86267C43.8747 -4.07167 43.8512 -4.27293 43.812 -4.48193L22.2656 -4.48193C22.2813 -4.21875 22.2891 -3.95556 22.3205 -3.68463L26.777 32.1474L42.7468 2.51573C43.765 0.61924 44.141 -1.43981 43.9608 -3.42919V-3.42145Z" fill="#FFD543"/>
<path d="M43.9608 -3.42145L43.906 -3.86267C43.8747 -4.07167 43.8512 -4.27293 43.812 -4.48193L22.2656 -4.48193C22.2813 -4.21875 22.2891 -3.95556 22.3205 -3.68463L26.777 32.1474L42.7468 2.51573C43.765 0.61924 44.141 -1.43981 43.9608 -3.42919V-3.42145Z" fill="#FFCD1F"/>
<path d="M59.8022 -4.48145L46.8164 19.6001L50.8735 52.212H53.5364L84.1055 -4.48145L59.8022 -4.48145Z" fill="#FFD543"/>
<path d="M29.2344 52.2449H29.2863L29.2733 52.1665L29.2344 52.2449Z" fill="#FFD543"/>
<path d="M29.2617 52.2144H50.8708L46.8137 19.6025L29.2539 52.168L29.2617 52.2144Z" fill="#FFD543"/>
<path d="M29.2617 52.2144H50.8708L46.8137 19.6025L29.2539 52.168L29.2617 52.2144Z" fill="#FFCD1F"/>
</g>
<path d="M42.6672 61.3727L31.5453 75.4041C37.3707 74.4928 43.2041 73.583 49.0295 72.6717L70.0019 60.5001L70.0038 60.5003L70.0001 45.5001L42.6672 61.3727Z" fill="#FFF8E1"/>
<path d="M38.0547 74.3828C35.8858 74.7217 33.7114 75.0637 31.5425 75.4025C32.9207 73.6595 34.3071 71.9179 35.6853 70.1748L38.0547 74.3828Z" fill="#FFC600"/>
</svg>
