<svg width="70" height="86" viewBox="0 0 70 86" fill="none" xmlns="http://www.w3.org/2000/svg">
<path d="M0 0H70V66.6608L35 86L0 66.6608V0Z" fill="#FCE184"/>
<mask id="mask0_847_3003" style="mask-type:alpha" maskUnits="userSpaceOnUse" x="0" y="0" width="70" height="86">
<path d="M0 0H70V66.9978L35 85.6718L0 66.9978V0Z" fill="#D9D9D9"/>
</mask>
<g mask="url(#mask0_847_3003)">
<path d="M62.898 31.231L63.4223 30.8476L63.4141 30.833C63.2509 30.9704 63.0765 31.1043 62.898 31.231Z" fill="#FFD543"/>
<path d="M-2.93615 33.3544L21.0483 33.3536L51.4271 11.2453C51.658 11.0802 51.8901 10.9337 52.1262 10.7944L52.1057 10.758L23.3534 10.7545L-4.31938 30.8992L-2.93205 33.3617L-2.93615 33.3544Z" fill="#FFD543"/>
<path d="M62.9023 31.2363L62.5283 31.5086C62.6543 31.4203 62.7804 31.3319 62.9023 31.2363Z" fill="#FFD543"/>
<path d="M-15.6268 10.8228L-4.31886 30.8949L23.3539 10.7502L-14.3678 10.7417C-14.7955 10.7382 -15.2138 10.7676 -15.6309 10.8155L-15.6268 10.8228Z" fill="#FFD543"/>
<path d="M62.5304 31.5072L62.9044 31.2349C63.0788 31.1009 63.2502 30.9781 63.4205 30.8369L52.1289 10.7939C51.8969 10.9405 51.6607 11.0798 51.4298 11.2448L21.055 33.3605L56.4742 33.3554C58.7391 33.3515 60.8158 32.6685 62.5374 31.5033L62.5304 31.5072Z" fill="#FFD543"/>
<path d="M71.7975 45.7086L43.0087 45.706L15.3642 65.8352L16.7598 68.3123L84.5339 68.3161L71.7975 45.7086Z" fill="#FFD543"/>
<path d="M37.4552 54.7652L54.3461 65.0062C52.6154 58.8425 50.8854 52.67 49.1547 46.5063L22.2534 11.2562L10.5539 19.5151L37.4552 54.7652Z" fill="#FFF8E1"/>
<path d="M52.4141 58.1177C53.0579 60.4126 53.706 62.713 54.3499 65.0079C52.252 63.7394 50.1548 62.462 48.0569 61.1935L52.4141 58.1177Z" fill="#FFC600"/>
<path d="M3.99849 45.7245L4.02634 45.7739L4.0912 45.7221L3.99849 45.7245Z" fill="#FFD543"/>
<path d="M4.04207 45.7379L15.3665 65.8392L43.011 45.71L4.08037 45.7074L4.04207 45.7379Z" fill="#FFD543"/>
<path d="M4.04207 45.7379L15.3665 65.8392L43.011 45.71L4.08037 45.7074L4.04207 45.7379Z" fill="#FFCD1F"/>
<path d="M52.1978 10.7687L52.0757 10.7665L52.1055 10.8194C52.1055 10.8194 52.167 10.7856 52.1978 10.7687Z" fill="#FCE184"/>
<path d="M56.4721 33.3541L21.0488 33.3518L4.07335 45.7116L43.0039 45.7142L62.5212 31.5097C60.8036 32.6822 58.7269 33.3651 56.458 33.3618L56.4721 33.3541Z" fill="#FFD543"/>
<path d="M62.5304 31.5072L62.9044 31.2349C63.0788 31.1009 63.2502 30.9781 63.4205 30.8369L52.1289 10.7939C51.8969 10.9405 51.6607 11.0798 51.4298 11.2448L21.055 33.3605L56.4742 33.3554C58.7391 33.3515 60.8158 32.6685 62.5374 31.5033L62.5304 31.5072Z" fill="#FFCD1F"/>
<path d="M-14.3673 10.7383L23.3503 10.7395L38.515 -0.301134C43.4371 -3.88297 44.4072 -10.9321 40.6746 -16.0465C36.939 -21.1498 29.9208 -22.3889 24.9987 -18.807L-15.6469 10.7829L-15.6304 10.8121C-15.2133 10.7642 -14.795 10.7347 -14.3673 10.7383Z" fill="#FFD543"/>
<path d="M-15.6268 10.8228L-4.31886 30.8949L23.3539 10.7502L-14.3678 10.7417C-14.7955 10.7382 -15.2138 10.7676 -15.6309 10.8155L-15.6268 10.8228Z" fill="#FFCD1F"/>
</g>
</svg>
