<svg width="99" height="52" viewBox="0 0 99 52" fill="none" xmlns="http://www.w3.org/2000/svg">
<mask id="mask0_569_2962" style="mask-type:alpha" maskUnits="userSpaceOnUse" x="0" y="0" width="99" height="52">
<path d="M0 2.28052C0 1.17595 0.895431 0.280518 2 0.280518H98.6278V52H2C0.895427 52 0 51.1046 0 50V2.28052Z" fill="#D9D9D9"/>
</mask>
<g mask="url(#mask0_569_2962)">
<path d="M-4.41793 50.7558L12.416 18.8763L10.2148 0.801292C9.5018 -5.06466 4.20828 -9.24122 -1.61228 -8.52167C-7.42508 -7.79429 -11.5638 -2.45236 -10.8508 3.4136L-4.9527 51.8586H-4.9217C-4.77444 51.4831 -4.61169 51.1155 -4.41793 50.7558Z" fill="#161616"/>
<path d="M45.5628 1.64619L29.752 31.586L32.2166 51.8197L49.593 18.9156L46.7641 -4.3449C46.9501 -2.33483 46.5781 -0.254376 45.5628 1.66184V1.64619Z" fill="#161616"/>
<path d="M19.0494 51.8586L29.7528 31.5859L25.3505 -4.61877C25.3195 -4.89252 25.304 -5.15844 25.2963 -5.42436H25.2575L12.4229 18.8763L16.4376 51.8586H19.0572H19.0494Z" fill="#161616"/>
<path d="M-4.9151 51.8589H16.4373L12.4226 18.8766L-4.41908 50.7561C-4.61284 51.1159 -4.77559 51.4835 -4.92285 51.8589H-4.9151Z" fill="#FCE184"/>
<path d="M-4.9151 51.8589H16.4373L12.4226 18.8766L-4.41908 50.7561C-4.61284 51.1159 -4.77559 51.4835 -4.92285 51.8589H-4.9151Z" fill="#0F0F0F"/>
<path d="M46.7655 -4.35285L46.7112 -4.79866C46.6802 -5.00983 46.657 -5.21319 46.6182 -5.42436H25.2969C25.3124 -5.15844 25.3201 -4.89252 25.3511 -4.61877L29.7611 31.5859L45.5642 1.64607C46.5717 -0.270142 46.9438 -2.3506 46.7655 -4.36067V-4.35285Z" fill="#FCE184"/>
<path d="M46.7655 -4.35285L46.7112 -4.79866C46.6802 -5.00983 46.657 -5.21319 46.6182 -5.42436H25.2969C25.3124 -5.15844 25.3201 -4.89252 25.3511 -4.61877L29.7611 31.5859L45.5642 1.64607C46.5717 -0.270142 46.9438 -2.3506 46.7655 -4.36067V-4.35285Z" fill="#0F0F0F"/>
<path d="M62.4439 -5.42436L49.5938 18.9076L53.6085 51.8586H56.2436L86.4934 -5.42436H62.4439Z" fill="#161616"/>
<path d="M32.1963 51.8569H32.2263L32.2188 51.8116L32.1963 51.8569Z" fill="#FCE184"/>
<path d="M32.2255 51.8588H53.6089L49.5942 18.9078L32.2178 51.8119L32.2255 51.8588Z" fill="#FCE184"/>
<path d="M32.2255 51.8588H53.6089L49.5942 18.9078L32.2178 51.8119L32.2255 51.8588Z" fill="#0F0F0F"/>
</g>
</svg>
