<svg width="115" height="27" viewBox="0 0 115 27" fill="none" xmlns="http://www.w3.org/2000/svg">
<g clip-path="url(#clip0_373_4591)">
<path d="M38.2894 2.95197L25.6382 26.7283H19.726L17.6433 10.7333L8.99573 26.7283H3.04002L0 2.95197H5.4708L7.59073 19.6633L16.5802 2.95197H21.7091L23.7607 19.7992L32.7875 2.95197H38.2894Z" fill="#272727"/>
<path d="M48.5161 8.18274V13.0739C48.0747 13.0368 47.7328 13.0059 47.3225 13.0059C44.3819 13.0059 42.4361 14.5993 42.4361 18.1009V26.7283H37.1021V8.45447H42.1936V10.863C43.4929 9.09674 45.6813 8.18274 48.5161 8.18274Z" fill="#272727"/>
<path d="M50.3625 2.95197C50.3625 1.29071 51.6992 0 53.6761 0C55.6531 0 56.9897 1.22278 56.9897 2.85316C56.9897 4.61939 55.6593 5.91011 53.6761 5.91011C51.6929 5.91011 50.3625 4.61939 50.3625 2.95814V2.95197ZM51.0091 8.45448H56.3431V26.7283H51.0091V8.45448Z" fill="#272727"/>
<path d="M72.4881 25.8451C71.394 26.6233 69.79 27 68.1488 27C63.8095 27 61.2792 24.7953 61.2792 20.4476V12.9442H58.4443V8.86824H61.2792V4.41559H66.6132V8.86207H71.195V12.938H66.6132V20.3735C66.6132 21.9359 67.4712 22.782 68.901 22.782C69.6906 22.782 70.4739 22.5412 71.052 22.1027L72.4881 25.839V25.8451Z" fill="#272727"/>
<path d="M72.8672 17.5944C72.8672 12.0919 77.1381 8.1889 82.9882 8.1889C88.8382 8.1889 93.0718 12.0919 93.0718 17.5944C93.0718 23.097 88.832 27 82.9882 27C77.1444 27 72.8672 23.097 72.8672 17.5944ZM87.6694 17.5944C87.6694 14.4387 85.6552 12.5366 82.9882 12.5366C80.3212 12.5366 78.2696 14.4387 78.2696 17.5944C78.2696 20.7502 80.3212 22.6523 82.9882 22.6523C85.6552 22.6523 87.6694 20.7502 87.6694 17.5944Z" fill="#272727"/>
<path d="M114.75 16.2667V26.7283H109.416V17.0819C109.416 14.1299 108.048 12.7713 105.692 12.7713C103.131 12.7713 101.284 14.3337 101.284 17.6933V26.7283H95.9504V8.45447H101.042V10.5912C102.478 9.0288 104.629 8.18274 107.128 8.18274C111.468 8.18274 114.75 10.6962 114.75 16.2667Z" fill="#272727"/>
</g>
<defs>
<clipPath id="clip0_373_4591">
<rect width="114.75" height="27" fill="white"/>
</clipPath>
</defs>
</svg>
