<svg width="82" height="43" viewBox="0 0 82 43" fill="none" xmlns="http://www.w3.org/2000/svg">
<mask id="mask0_373_4233" style="mask-type:alpha" maskUnits="userSpaceOnUse" x="0" y="0" width="82" height="43">
<path d="M0 8C0 3.58172 3.58172 0 8 0H82V43H8C3.58172 43 0 39.4183 0 35V8Z" fill="#D9D9D9"/>
</mask>
<g mask="url(#mask0_373_4233)">
<path d="M1.41474 41.9655L15.4106 15.4606L13.5805 0.432969C12.9877 -4.44403 8.58664 -7.91646 3.74738 -7.31822C-1.08543 -6.71347 -4.52639 -2.27214 -3.93357 2.60486L0.970125 42.8824H0.9959C1.11833 42.5703 1.25365 42.2646 1.41474 41.9655Z" fill="#D2E4FF"/>
<path d="M42.9704 1.13534L29.8252 26.0276L31.8743 42.85L46.3212 15.4932L43.9692 -3.8457C44.1239 -2.17452 43.8146 -0.444806 42.9704 1.14835V1.13534Z" fill="#D2E4FF"/>
<path d="M20.9264 42.8824L29.8252 26.0275L26.1652 -4.07339C26.1394 -4.30098 26.1265 -4.52207 26.1201 -4.74316H26.0878L15.417 15.4606L18.7549 42.8824H20.9328H20.9264Z" fill="#D2E4FF"/>
<path d="M1.00254 42.8827H18.7551L15.4172 15.4609L1.41494 41.9658C1.25384 42.2649 1.11853 42.5706 0.996094 42.8827H1.00254Z" fill="#FCE184"/>
<path d="M1.00254 42.8827H18.7551L15.4172 15.4609L1.41494 41.9658C1.25384 42.2649 1.11853 42.5706 0.996094 42.8827H1.00254Z" fill="#C7DDFF"/>
<path d="M43.9693 -3.8523L43.9242 -4.22295C43.8984 -4.39852 43.8791 -4.56759 43.8469 -4.74316H26.1201C26.133 -4.52207 26.1394 -4.30098 26.1652 -4.07339L29.8317 26.0275L42.9705 1.13525C43.8082 -0.457903 44.1175 -2.18761 43.9693 -3.8588V-3.8523Z" fill="#FCE184"/>
<path d="M43.9693 -3.8523L43.9242 -4.22295C43.8984 -4.39852 43.8791 -4.56759 43.8469 -4.74316H26.1201C26.133 -4.52207 26.1394 -4.30098 26.1652 -4.07339L29.8317 26.0275L42.9705 1.13525C43.8082 -0.457903 44.1175 -2.18761 43.9693 -3.8588V-3.8523Z" fill="#C7DDFF"/>
<path d="M57.005 -4.74316L46.3213 15.4866L49.6592 42.8824H51.85L77 -4.74316H57.005Z" fill="#D2E4FF"/>
<path d="M31.855 42.8825H31.881L31.8745 42.8433L31.855 42.8825Z" fill="#FCE184"/>
<path d="M31.881 42.8826H49.6593L46.3214 15.4868L31.8745 42.8436L31.881 42.8826Z" fill="#FCE184"/>
<path d="M31.881 42.8826H49.6593L46.3214 15.4868L31.8745 42.8436L31.881 42.8826Z" fill="#C7DDFF"/>
</g>
</svg>
