<svg width="20" height="12" viewBox="0 0 20 12" fill="none" xmlns="http://www.w3.org/2000/svg">
<path d="M7.13604 0.869999H9.98604L8.36604 9H5.66603L5.83104 8.16C5.11103 8.835 4.19604 9.135 3.31103 9.135C1.58603 9.135 0.401035 8.19 0.401035 6.36C0.401035 6.045 0.431035 5.715 0.506035 5.355L1.40603 0.869999H4.25603L3.41603 5.085C3.37104 5.295 3.35604 5.475 3.35604 5.64C3.35604 6.33 3.71604 6.705 4.45103 6.705C5.41104 6.705 6.08603 6.12 6.32603 4.89L7.13604 0.869999ZM16.4118 0.735C18.1668 0.735 19.8468 2.07 19.8468 4.425C19.8468 7.14 17.8668 9.135 15.4368 9.135C14.3418 9.135 13.4568 8.805 12.9468 8.025L12.1668 11.91H9.31678L11.5218 0.869999H14.2218L14.0568 1.635C14.6868 1.05 15.4668 0.735 16.4118 0.735ZM15.0318 6.84C16.1568 6.84 16.9668 5.925 16.9668 4.575C16.9668 3.63 16.3968 3.015 15.4218 3.015C14.2968 3.015 13.4868 3.93 13.4868 5.295C13.4868 6.24 14.0568 6.84 15.0318 6.84Z" fill="#266CF4"/>
</svg>
