<svg width="173" height="88" viewBox="0 0 173 88" fill="none" xmlns="http://www.w3.org/2000/svg">
<g clip-path="url(#clip0_409_2983)">
<path d="M11.561 85.9067L41.454 29.025L37.5454 -3.22569C36.2792 -13.6922 26.8791 -21.1443 16.5431 -19.8604C6.22095 -18.5626 -1.12845 -9.0311 0.137737 1.43537L10.6113 87.8745H10.6664C10.9279 87.2046 11.2169 86.5487 11.561 85.9067Z" fill="#0F62F9"/>
<path d="M100.318 -1.71857L72.2417 51.7023L76.6183 87.8046L107.475 29.0947L102.451 -12.4083C102.782 -8.82182 102.121 -5.10971 100.318 -1.69066V-1.71857Z" fill="#0F62F9"/>
<path d="M53.2351 87.8744L72.2417 51.7023L64.4243 -12.8968C64.3693 -13.3852 64.3418 -13.8597 64.328 -14.3342H64.2592L41.4678 29.0249L48.597 87.8744H53.2488H53.2351Z" fill="#0F62F9"/>
<path d="M10.68 87.8744H48.5969L41.4677 29.0249L11.5608 85.9067C11.2168 86.5487 10.9278 87.2046 10.6663 87.8744H10.68Z" fill="#FCE184"/>
<path d="M10.68 87.8744H48.5969L41.4677 29.0249L11.5608 85.9067C11.2168 86.5487 10.9278 87.2046 10.6663 87.8744H10.68Z" fill="#0059FF"/>
<path d="M102.451 -12.4223L102.355 -13.2177C102.3 -13.5945 102.259 -13.9574 102.19 -14.3342H64.3279C64.3554 -13.8597 64.3692 -13.3852 64.4242 -12.8968L72.2553 51.7023L100.318 -1.71857C102.107 -5.13762 102.768 -8.84972 102.451 -12.4362V-12.4223Z" fill="#FCE184"/>
<path d="M102.451 -12.4223L102.355 -13.2177C102.3 -13.5945 102.259 -13.9574 102.19 -14.3342H64.3279C64.3554 -13.8597 64.3692 -13.3852 64.4242 -12.8968L72.2553 51.7023L100.318 -1.71857C102.107 -5.13762 102.768 -8.84972 102.451 -12.4362V-12.4223Z" fill="#0059FF"/>
<path d="M130.294 -14.3342L107.475 29.0807L114.604 87.8744H119.283L173 -14.3342H130.294Z" fill="#0F62F9"/>
<path d="M76.5769 87.8732H76.6311L76.6176 87.7907L76.5769 87.8732Z" fill="#FCE184"/>
<path d="M76.6319 87.8744H114.604L107.475 29.0808L76.6182 87.7907L76.6319 87.8744Z" fill="#FCE184"/>
<path d="M76.6319 87.8744H114.604L107.475 29.0808L76.6182 87.7907L76.6319 87.8744Z" fill="#0059FF"/>
</g>
<defs>
<clipPath id="clip0_409_2983">
<rect width="173" height="108" fill="white" transform="translate(0 -20)"/>
</clipPath>
</defs>
</svg>
