<svg width="10" height="10" viewBox="0 0 10 10" fill="none" xmlns="http://www.w3.org/2000/svg">
<g clip-path="url(#clip0_283_2047)">
<path d="M6.37763 4.24768L5.87927 0.187056L5.86971 0.10923C5.86425 0.0723648 5.86015 0.0368651 5.85332 0H2.91504C2.91777 0.0464227 2.91914 0.0928454 2.9246 0.140634L3.70149 6.46095L4.13568 9.99317V10.0014H7.08489L6.37763 4.24904V4.24768Z" fill="#272727"/>
<path d="M4.24768 3.6223L0.187056 4.12066L0.10923 4.13022C0.0723648 4.13568 0.0354997 4.13978 0 4.14797V7.08489C0.0464227 7.08216 0.0928454 7.0808 0.140634 7.07533L6.46095 6.29844L9.99317 5.86425H10.0014V2.91504L4.24904 3.6223H4.24768Z" fill="#272727"/>
</g>
<defs>
<clipPath id="clip0_283_2047">
<rect width="10" height="10" fill="white"/>
</clipPath>
</defs>
</svg>
