<svg width="28" height="17" viewBox="0 0 28 17" fill="none" xmlns="http://www.w3.org/2000/svg">
<g clip-path="url(#clip0_126_1946)">
<path d="M5.76894 2.09843L1.26953 10.9837L1.97091 16.9885L6.91585 7.22117L6.1086 0.318115C6.16154 0.914647 6.05567 1.53207 5.76673 2.10075L5.76894 2.09843Z" fill="#266CF4"/>
<path d="M6.10949 0.317996L6.09405 0.185691C6.08523 0.12302 6.07861 0.0626707 6.06759 0H0C0.00441119 0.0789186 0.00661678 0.157837 0.0154391 0.239077L1.27042 10.9836L5.76983 2.09831C6.05656 1.52963 6.16243 0.912206 6.1117 0.315675L6.10949 0.317996Z" fill="#266CF4"/>
<path d="M16.6932 0.317996L16.6777 0.185691C16.6689 0.12302 16.6623 0.0626707 16.6512 0H10.5704L6.91797 7.21409L8.06047 17.0023H8.80596L11.8519 10.9859L16.3513 2.09831C16.638 1.52963 16.7439 0.912206 16.6932 0.315675V0.317996Z" fill="#266CF4"/>
<path d="M6.10949 0.317996L6.09405 0.185691C6.08523 0.12302 6.07861 0.0626707 6.06759 0H0C0.00441119 0.0789186 0.00661678 0.157837 0.0154391 0.239077L1.27042 10.9836L5.76983 2.09831C6.05656 1.52963 6.16243 0.912206 6.1117 0.315675L6.10949 0.317996Z" fill="#0062FF"/>
<path d="M1.97266 16.9999H8.05789L6.9176 7.22095L1.97266 16.9883V16.9999Z" fill="#266CF4"/>
<path d="M1.97266 16.9999H8.05789L6.9176 7.22095L1.97266 16.9883V16.9999Z" fill="#0062FF"/>
<path d="M16.351 2.0983L11.8516 10.9836L12.5529 16.9884L17.4979 7.22337L16.6928 0.320312C16.7458 0.916844 16.6399 1.53427 16.351 2.10295V2.0983Z" fill="#266CF4"/>
<path d="M16.6954 0.317996L16.68 0.185691C16.6712 0.12302 16.6646 0.0626707 16.6535 0H10.5859C10.5903 0.0789186 10.5926 0.157837 10.6014 0.239077L11.8564 10.9836L16.3536 2.09831C16.6403 1.52963 16.7462 0.912206 16.6954 0.315675V0.317996Z" fill="#0062FF"/>
<path d="M21.1569 0L17.5 7.22105L18.6425 17H19.3924L28.0008 0H21.1569Z" fill="#266CF4"/>
<path d="M12.5569 16.9999H18.6421L17.4996 7.22095L12.5547 16.9883L12.5569 16.9999Z" fill="#266CF4"/>
<path d="M12.5569 16.9999H18.6421L17.4996 7.22095L12.5547 16.9883L12.5569 16.9999Z" fill="#0062FF"/>
</g>
<defs>
<clipPath id="clip0_126_1946">
<rect width="28" height="17" fill="white"/>
</clipPath>
</defs>
</svg>
