<svg width="28" height="18" viewBox="0 0 28 18" fill="none" xmlns="http://www.w3.org/2000/svg">
<g clip-path="url(#clip0_288_1930)">
<path d="M5.76894 2.59843L1.26953 11.4837L1.97091 17.4885L6.91585 7.72117L6.1086 0.818115C6.16154 1.41465 6.05567 2.03207 5.76673 2.60075L5.76894 2.59843Z" fill="#266CF4"/>
<path d="M6.10949 0.817996L6.09405 0.685691C6.08523 0.62302 6.07861 0.562671 6.06759 0.5H0C0.00441119 0.578919 0.00661678 0.657837 0.0154391 0.739077L1.27042 11.4836L5.76983 2.59831C6.05656 2.02963 6.16243 1.41221 6.1117 0.815675L6.10949 0.817996Z" fill="#266CF4"/>
<path d="M16.6912 0.817996L16.6758 0.685691C16.6669 0.62302 16.6603 0.562671 16.6493 0.5H10.5685L6.91602 7.71409L8.05851 17.5023H8.804L11.8499 11.4859L16.3493 2.59831C16.6361 2.02963 16.7419 1.41221 16.6912 0.815675V0.817996Z" fill="#266CF4"/>
<path d="M6.10949 0.817996L6.09405 0.685691C6.08523 0.62302 6.07861 0.562671 6.06759 0.5H0C0.00441119 0.578919 0.00661678 0.657837 0.0154391 0.739077L1.27042 11.4836L5.76983 2.59831C6.05656 2.02963 6.16243 1.41221 6.1117 0.815675L6.10949 0.817996Z" fill="#0062FF"/>
<path d="M1.97266 17.4999H8.05789L6.9176 7.72095L1.97266 17.4883V17.4999Z" fill="#266CF4"/>
<path d="M1.97266 17.4999H8.05789L6.9176 7.72095L1.97266 17.4883V17.4999Z" fill="#0062FF"/>
<path d="M16.3529 2.5983L11.8535 11.4836L12.5549 17.4884L17.4998 7.72337L16.6948 0.820312C16.7477 1.41684 16.6419 2.03427 16.3529 2.60295V2.5983Z" fill="#266CF4"/>
<path d="M16.6935 0.817996L16.678 0.685691C16.6692 0.62302 16.6626 0.562671 16.6516 0.5H10.584C10.5884 0.578919 10.5906 0.657837 10.5994 0.739077L11.8544 11.4836L16.3516 2.59831C16.6383 2.02963 16.7442 1.41221 16.6935 0.815675V0.817996Z" fill="#0062FF"/>
<path d="M21.1569 0.5L17.5 7.72105L18.6425 17.5H19.3924L28.0008 0.5H21.1569Z" fill="#266CF4"/>
<path d="M12.5569 17.4999H18.6421L17.4996 7.72095L12.5547 17.4883L12.5569 17.4999Z" fill="#266CF4"/>
<path d="M12.5569 17.4999H18.6421L17.4996 7.72095L12.5547 17.4883L12.5569 17.4999Z" fill="#0062FF"/>
</g>
<defs>
<clipPath id="clip0_288_1930">
<rect width="28" height="17" fill="white" transform="translate(0 0.5)"/>
</clipPath>
</defs>
</svg>
