<svg width="328" height="87" viewBox="0 0 328 87" fill="none" xmlns="http://www.w3.org/2000/svg">
<rect x="0.5" y="0.5" width="327" height="86" rx="1.5" fill="#F3F5F9" stroke="#266CF4"/>
<mask id="mask0_310_2783" style="mask-type:alpha" maskUnits="userSpaceOnUse" x="1" y="1" width="164" height="85">
<path d="M1 2C1 1.44772 1.44772 1 2 1H164.462V86H2C1.44771 86 1 85.5523 1 85V2Z" fill="#F3F5F9"/>
</mask>
<g mask="url(#mask0_310_2783)">
<path d="M-3.39641 84.0989L23.8801 32.4434L20.3136 3.15596C19.1582 -6.34884 10.5809 -13.1163 1.14968 -11.9503C-8.26901 -10.7717 -14.9751 -2.11604 -13.8198 7.38877L-4.26293 85.8858H-4.21269C-3.97409 85.2775 -3.71036 84.6819 -3.39641 84.0989Z" fill="#EAEEF7"/>
<path d="M77.592 4.52478L51.9731 53.0373L55.9667 85.8225L84.1222 32.5069L79.5385 -5.1828C79.8399 -1.92582 79.2371 1.44522 77.592 4.55012V4.52478Z" fill="#EAEEF7"/>
<path d="M34.6301 85.8858L51.9731 53.0372L44.84 -5.62644C44.7897 -6.06999 44.7646 -6.50088 44.7521 -6.93176H44.6893L23.8928 32.4435L30.398 85.8858H34.6427H34.6301Z" fill="#EAEEF7"/>
<path d="M-4.19984 85.8858H30.3981L23.893 32.4435L-3.39612 84.0989C-3.71007 84.6819 -3.9738 85.2775 -4.2124 85.8858H-4.19984Z" fill="#FCE184"/>
<path d="M-4.19984 85.8858H30.3981L23.893 32.4435L-3.39612 84.0989C-3.71007 84.6819 -3.9738 85.2775 -4.2124 85.8858H-4.19984Z" fill="#E5EAF2"/>
<path d="M79.5385 -5.19555L79.4506 -5.91792C79.4004 -6.26009 79.3627 -6.58959 79.2999 -6.93176H44.7522C44.7773 -6.50088 44.7899 -6.06999 44.8401 -5.62644L51.9857 53.0372L77.592 4.5247C79.2246 1.41979 79.8274 -1.95124 79.5385 -5.20822V-5.19555Z" fill="#FCE184"/>
<path d="M79.5385 -5.19555L79.4506 -5.91792C79.4004 -6.26009 79.3627 -6.58959 79.2999 -6.93176H44.7522C44.7773 -6.50088 44.7899 -6.06999 44.8401 -5.62644L51.9857 53.0372L77.592 4.5247C79.2246 1.41979 79.8274 -1.95124 79.5385 -5.20822V-5.19555Z" fill="#E5EAF2"/>
<path d="M104.944 -6.93176L84.1223 32.4942L90.6275 85.8858H94.8973L143.912 -6.93176H104.944Z" fill="#EAEEF7"/>
<path d="M55.929 85.8863H55.9797L55.967 85.8098L55.929 85.8863Z" fill="#FCE184"/>
<path d="M55.9794 85.8859H90.6275L84.1224 32.4942L55.9668 85.8098L55.9794 85.8859Z" fill="#FCE184"/>
<path d="M55.9794 85.8859H90.6275L84.1224 32.4942L55.9668 85.8098L55.9794 85.8859Z" fill="#E5EAF2"/>
</g>
<path d="M104.687 22.5178L98.1822 34.7426H95.1423L94.0715 26.5186L89.6253 34.7426H86.5631L85 22.5178H87.8129L88.9029 31.1101L93.5249 22.5178H96.162L97.2168 31.1799L101.858 22.5178H104.687Z" fill="#266CF4"/>
<path d="M109.945 25.2072V27.722C109.718 27.7029 109.542 27.6871 109.331 27.6871C107.819 27.6871 106.819 28.5063 106.819 30.3067V34.7425H104.076V25.3469H106.694V26.5852C107.362 25.6771 108.488 25.2072 109.945 25.2072Z" fill="#266CF4"/>
<path d="M110.895 22.5178C110.895 21.6636 111.582 21 112.598 21C113.615 21 114.302 21.6287 114.302 22.467C114.302 23.3751 113.618 24.0388 112.598 24.0388C111.579 24.0388 110.895 23.3751 110.895 22.521V22.5178ZM111.227 25.347H113.97V34.7426H111.227V25.347Z" fill="#266CF4"/>
<path d="M122.271 34.2886C121.708 34.6887 120.883 34.8824 120.039 34.8824C117.808 34.8824 116.507 33.7488 116.507 31.5134V27.6555H115.05V25.5598H116.507V23.2704H119.25V25.5566H121.606V27.6523H119.25V31.4753C119.25 32.2787 119.691 32.7137 120.426 32.7137C120.832 32.7137 121.235 32.5899 121.532 32.3644L122.271 34.2855V34.2886Z" fill="#266CF4"/>
<path d="M122.466 30.0464C122.466 27.2172 124.662 25.2104 127.669 25.2104C130.677 25.2104 132.854 27.2172 132.854 30.0464C132.854 32.8755 130.674 34.8823 127.669 34.8823C124.665 34.8823 122.466 32.8755 122.466 30.0464ZM130.076 30.0464C130.076 28.4238 129.041 27.4458 127.669 27.4458C126.298 27.4458 125.243 28.4238 125.243 30.0464C125.243 31.6689 126.298 32.6469 127.669 32.6469C129.041 32.6469 130.076 31.6689 130.076 30.0464Z" fill="#266CF4"/>
<path d="M144 29.3636V34.7425H141.257V29.7827C141.257 28.265 140.554 27.5664 139.343 27.5664C138.026 27.5664 137.077 28.3697 137.077 30.0971V34.7425H134.334V25.3469H136.952V26.4455C137.69 25.6422 138.796 25.2072 140.081 25.2072C142.312 25.2072 144 26.4995 144 29.3636Z" fill="#266CF4"/>
<path d="M111.99 51.12V48.9H114.49V51.12H118.43V53.18H107.51V51.12H111.99ZM111.13 62.26H111.97V60.86C110.983 60.6733 110.197 60.2867 109.61 59.7C109.037 59.1133 108.75 58.3733 108.75 57.48C108.75 56.3467 109.163 55.46 109.99 54.82C110.817 54.18 111.897 53.86 113.23 53.86C114.55 53.86 115.617 54.18 116.43 54.82C117.257 55.46 117.67 56.3467 117.67 57.48C117.67 58.3733 117.377 59.12 116.79 59.72C116.203 60.3067 115.417 60.6933 114.43 60.88V62.18C116.737 62.0467 118.623 61.82 120.09 61.5V48.9H122.59V66.8H120.09V63.32C118.983 63.6133 117.677 63.8467 116.17 64.02C114.663 64.18 113.17 64.26 111.69 64.26H107.25L107.13 62.26H111.13ZM111.17 57.48C111.17 57.88 111.343 58.2267 111.69 58.52C112.037 58.8 112.55 58.94 113.23 58.94C113.897 58.94 114.397 58.8 114.73 58.52C115.077 58.2267 115.25 57.88 115.25 57.48C115.25 57.0133 115.083 56.6333 114.75 56.34C114.417 56.0467 113.91 55.9 113.23 55.9C112.537 55.9 112.017 56.0467 111.67 56.34C111.337 56.6333 111.17 57.0133 111.17 57.48ZM126.788 52.94C126.788 51.82 127.222 50.9333 128.088 50.28C128.968 49.6133 130.155 49.28 131.648 49.28C133.142 49.28 134.322 49.6133 135.188 50.28C136.068 50.9333 136.508 51.82 136.508 52.94C136.508 54.0333 136.068 54.9067 135.188 55.56C134.322 56.2133 133.142 56.54 131.648 56.54C130.155 56.54 128.968 56.2133 128.088 55.56C127.222 54.9067 126.788 54.0333 126.788 52.94ZM128.828 57.34C131.042 57.34 132.915 57.2667 134.448 57.12C135.982 56.96 137.342 56.7267 138.528 56.42V48.9H140.988V62.76H138.528V61.82H135.048V59.96H138.528V58.28C137.035 58.76 135.148 59.0867 132.868 59.26V62.26H130.608V59.38C130.235 59.3933 129.675 59.4 128.928 59.4H125.728L125.608 57.34H128.828ZM127.568 61.8H130.068V64.96H141.388V67.1H127.568V61.8ZM129.188 52.94C129.188 53.4733 129.408 53.9 129.848 54.22C130.302 54.5267 130.902 54.68 131.648 54.68C132.395 54.68 132.988 54.5267 133.428 54.22C133.882 53.9 134.108 53.4733 134.108 52.94C134.108 52.4067 133.882 51.9867 133.428 51.68C132.988 51.36 132.395 51.2 131.648 51.2C130.902 51.2 130.302 51.36 129.848 51.68C129.408 51.9867 129.188 52.4067 129.188 52.94ZM153.087 50.44V52.04C153.087 53.76 152.814 55.3 152.267 56.66C151.734 58.02 150.88 59.2667 149.707 60.4C148.547 61.5333 147.014 62.6 145.107 63.6L143.787 61.76C145.507 60.8133 146.86 59.88 147.847 58.96C148.834 58.0267 149.52 57.1067 149.907 56.2C150.307 55.28 150.507 54.3067 150.507 53.28V52.6H144.847V50.44H153.087ZM155.607 48.9H158.107V55.4H160.807V57.56H158.107V66.8H155.607V48.9ZM162.485 53.84C162.485 52.9867 162.699 52.24 163.125 51.6C163.565 50.9467 164.159 50.44 164.905 50.08C165.652 49.72 166.492 49.54 167.425 49.54C168.345 49.54 169.179 49.72 169.925 50.08C170.685 50.4267 171.279 50.9267 171.705 51.58C172.145 52.2333 172.365 52.9867 172.365 53.84C172.365 54.68 172.145 55.4267 171.705 56.08C171.279 56.72 170.685 57.22 169.925 57.58C169.179 57.9267 168.345 58.1 167.425 58.1C166.492 58.1 165.652 57.9267 164.905 57.58C164.159 57.22 163.565 56.72 163.125 56.08C162.699 55.4267 162.485 54.68 162.485 53.84ZM164.965 53.84C164.965 54.4533 165.185 54.96 165.625 55.36C166.065 55.76 166.665 55.96 167.425 55.96C168.185 55.96 168.785 55.76 169.225 55.36C169.665 54.96 169.885 54.4533 169.885 53.84C169.885 53.2267 169.665 52.7133 169.225 52.3C168.785 51.8867 168.185 51.68 167.425 51.68C166.665 51.68 166.065 51.8867 165.625 52.3C165.185 52.7133 164.965 53.2267 164.965 53.84ZM165.645 59.4H168.165V61.04H175.285V59.4H177.785V67.06H165.645V59.4ZM175.285 64.94V62.94H168.165V64.94H175.285ZM175.285 48.9H177.785V58.36H175.285V48.9ZM189.333 51.7V49.18H191.833V51.7H196.033V53.8H185.033V51.7H189.333ZM185.853 59.22C185.853 58.3933 186.046 57.6667 186.433 57.04C186.82 56.4 187.373 55.9 188.093 55.54C188.826 55.18 189.686 55 190.673 55C191.646 55 192.493 55.18 193.213 55.54C193.933 55.8867 194.486 56.38 194.873 57.02C195.273 57.66 195.473 58.3933 195.473 59.22C195.473 60.0333 195.273 60.76 194.873 61.4C194.486 62.04 193.933 62.5467 193.213 62.92C192.493 63.28 191.646 63.46 190.673 63.46C189.7 63.46 188.846 63.28 188.113 62.92C187.38 62.5467 186.82 62.04 186.433 61.4C186.046 60.76 185.853 60.0333 185.853 59.22ZM188.353 59.22C188.353 59.8467 188.54 60.36 188.913 60.76C189.3 61.16 189.886 61.36 190.673 61.36C191.446 61.36 192.02 61.16 192.393 60.76C192.78 60.36 192.973 59.8467 192.973 59.22C192.973 58.6067 192.78 58.0933 192.393 57.68C192.006 57.2667 191.433 57.06 190.673 57.06C189.886 57.06 189.3 57.2667 188.913 57.68C188.54 58.08 188.353 58.5933 188.353 59.22ZM197.313 48.9H199.813V55.74H202.213V57.84H199.813V66.8H197.313V48.9ZM213.252 50.26V51.9C213.252 56.8067 210.412 60.62 204.732 63.34L203.412 61.38C205.785 60.3133 207.598 58.9933 208.852 57.42C210.118 55.8467 210.752 54.2067 210.752 52.5V52.44H204.312V50.26H213.252ZM216.612 48.9H219.112V66.8H216.612V48.9Z" fill="#266CF4"/>
<path d="M50.3659 27.168C50.3659 26.112 50.5365 25.2267 50.8779 24.512C51.2192 23.7867 51.6779 23.248 52.2539 22.896C52.8299 22.544 53.4592 22.368 54.1419 22.368C54.8139 22.368 55.4325 22.544 55.9979 22.896C56.5632 23.248 57.0165 23.7867 57.3579 24.512C57.6992 25.2267 57.8699 26.112 57.8699 27.168C57.8699 28.224 57.6992 29.1147 57.3579 29.84C57.0165 30.5547 56.5632 31.088 55.9979 31.44C55.4325 31.792 54.8139 31.968 54.1419 31.968C53.4592 31.968 52.8299 31.792 52.2539 31.44C51.6779 31.088 51.2192 30.5547 50.8779 29.84C50.5365 29.1147 50.3659 28.224 50.3659 27.168ZM51.6139 27.168C51.6139 27.9573 51.7312 28.6347 51.9659 29.2C52.2112 29.7547 52.5259 30.176 52.9099 30.464C53.2939 30.7413 53.7045 30.88 54.1419 30.88C54.6005 30.88 55.0165 30.7413 55.3899 30.464C55.7632 30.176 56.0619 29.7547 56.2859 29.2C56.5099 28.6347 56.6219 27.9573 56.6219 27.168C56.6219 26.368 56.5099 25.6907 56.2859 25.136C56.0619 24.5707 55.7632 24.1493 55.3899 23.872C55.0165 23.5947 54.6005 23.456 54.1419 23.456C53.6832 23.456 53.2619 23.5947 52.8779 23.872C52.4939 24.1493 52.1845 24.5707 51.9499 25.136C51.7259 25.6907 51.6139 26.368 51.6139 27.168ZM60.3499 21.12H61.5979V26.592H63.8219V27.648H61.5979V35.44H60.3499V21.12ZM73.3726 22.288V23.344H70.3326V23.904C70.3326 24.3093 70.4606 24.768 70.7166 25.28C70.9726 25.7813 71.3086 26.2293 71.7246 26.624C72.258 27.1253 72.9513 27.5307 73.8046 27.84L73.3246 28.976C72.9193 28.8267 72.4873 28.6133 72.0286 28.336C71.57 28.0587 71.1753 27.7547 70.8446 27.424C70.3753 26.9547 70.0233 26.448 69.7886 25.904C69.4686 26.768 68.9886 27.4987 68.3486 28.096C67.7193 28.6827 66.9566 29.1947 66.0606 29.632L65.4366 28.544C66.5033 28.1173 67.378 27.4773 68.0606 26.624C68.7433 25.7707 69.0846 24.832 69.0846 23.808V23.344H65.7726V22.288H73.3726ZM68.1086 30.688H76.9886V35.6H75.7406V31.76H68.1086V30.688ZM75.7406 21.12H76.9886V29.328H75.7406V21.12ZM155.434 22.464V23.488C155.434 23.7013 155.423 24.0213 155.402 24.448H157.706V21.344H158.954V35.152H157.706V29.728H155.146V28.704H157.706V25.472H155.29C155.087 26.88 154.607 28.1547 153.85 29.296C153.103 30.4267 151.999 31.4933 150.538 32.496L149.802 31.568C151.402 30.5333 152.538 29.3867 153.21 28.128C153.882 26.8587 154.218 25.4773 154.218 23.984V23.52H150.122V22.464H155.434ZM160.954 21.12H162.202V35.424H160.954V21.12ZM172.537 22.208V23.264H169.433V23.824C169.433 24.304 169.555 24.8053 169.801 25.328C170.057 25.84 170.398 26.2987 170.825 26.704C171.358 27.2053 172.051 27.6107 172.905 27.92L172.425 29.056C172.019 28.9067 171.587 28.6933 171.129 28.416C170.67 28.1387 170.275 27.8347 169.945 27.504C169.454 27.0133 169.097 26.4907 168.873 25.936C168.553 26.8213 168.078 27.5627 167.449 28.16C166.819 28.7573 166.057 29.2747 165.161 29.712L164.505 28.64C165.582 28.2027 166.462 27.552 167.145 26.688C167.838 25.8133 168.185 24.8267 168.185 23.728V23.264H164.937V22.208H172.537ZM167.337 32.848C167.337 32.3147 167.513 31.8347 167.865 31.408C168.217 30.9707 168.745 30.624 169.449 30.368C170.163 30.112 171.027 29.984 172.041 29.984C173.054 29.984 173.913 30.112 174.617 30.368C175.321 30.624 175.849 30.9707 176.201 31.408C176.553 31.8347 176.729 32.3147 176.729 32.848C176.729 33.392 176.553 33.8773 176.201 34.304C175.849 34.7307 175.321 35.0667 174.617 35.312C173.913 35.568 173.054 35.696 172.041 35.696C171.027 35.696 170.163 35.568 169.449 35.312C168.745 35.0667 168.217 34.7307 167.865 34.304C167.513 33.8773 167.337 33.392 167.337 32.848ZM168.585 32.848C168.585 33.1787 168.718 33.488 168.985 33.776C169.251 34.0533 169.646 34.2773 170.169 34.448C170.691 34.6187 171.315 34.704 172.041 34.704C172.766 34.704 173.39 34.6187 173.913 34.448C174.435 34.2773 174.825 34.0533 175.081 33.776C175.347 33.488 175.481 33.1787 175.481 32.848C175.481 32.496 175.347 32.1813 175.081 31.904C174.825 31.616 174.435 31.392 173.913 31.232C173.401 31.0613 172.777 30.976 172.041 30.976C171.305 30.976 170.675 31.0613 170.153 31.232C169.641 31.392 169.251 31.616 168.985 31.904C168.718 32.1813 168.585 32.496 168.585 32.848ZM172.569 24.864H175.241V21.12H176.489V29.376H175.241V25.936H172.569V24.864ZM179.751 27.072C179.751 26.0267 179.927 25.1413 180.279 24.416C180.631 23.6907 181.095 23.152 181.671 22.8C182.247 22.448 182.871 22.272 183.543 22.272C184.205 22.272 184.818 22.448 185.383 22.8C185.959 23.152 186.418 23.6907 186.759 24.416C187.111 25.1413 187.287 26.0267 187.287 27.072C187.287 28.1173 187.111 29.0027 186.759 29.728C186.418 30.4533 185.959 30.992 185.383 31.344C184.818 31.696 184.205 31.872 183.543 31.872C182.871 31.872 182.247 31.696 181.671 31.344C181.095 30.992 180.631 30.4533 180.279 29.728C179.927 29.0027 179.751 28.1173 179.751 27.072ZM180.967 27.072C180.967 27.8613 181.085 28.5387 181.319 29.104C181.565 29.6587 181.885 30.08 182.279 30.368C182.674 30.6453 183.095 30.784 183.543 30.784C183.991 30.784 184.407 30.6453 184.791 30.368C185.175 30.08 185.485 29.6587 185.719 29.104C185.954 28.5387 186.071 27.8613 186.071 27.072C186.071 26.272 185.954 25.5947 185.719 25.04C185.485 24.4747 185.175 24.0533 184.791 23.776C184.407 23.4987 183.991 23.36 183.543 23.36C183.085 23.36 182.658 23.504 182.263 23.792C181.879 24.0693 181.565 24.4853 181.319 25.04C181.085 25.5947 180.967 26.272 180.967 27.072ZM189.959 21.12H191.207V35.424H189.959V21.12ZM197.982 25.12C197.982 24.448 198.147 23.8613 198.478 23.36C198.808 22.848 199.256 22.4587 199.822 22.192C200.387 21.9147 201.011 21.776 201.694 21.776C202.376 21.776 203 21.9147 203.566 22.192C204.131 22.4587 204.579 22.8427 204.91 23.344C205.24 23.8453 205.406 24.4373 205.406 25.12C205.406 25.7813 205.235 26.368 204.894 26.88C204.563 27.3813 204.115 27.7707 203.55 28.048C202.984 28.3253 202.366 28.464 201.694 28.464C201.011 28.464 200.387 28.3253 199.822 28.048C199.256 27.7707 198.808 27.3813 198.478 26.88C198.147 26.368 197.982 25.7813 197.982 25.12ZM199.262 25.12C199.262 25.5467 199.374 25.9307 199.598 26.272C199.822 26.6133 200.115 26.88 200.478 27.072C200.851 27.2533 201.256 27.344 201.694 27.344C202.131 27.344 202.531 27.2533 202.894 27.072C203.267 26.88 203.566 26.6133 203.79 26.272C204.014 25.9307 204.126 25.5467 204.126 25.12C204.126 24.6933 204.014 24.3093 203.79 23.968C203.566 23.6267 203.267 23.3653 202.894 23.184C202.531 22.992 202.131 22.896 201.694 22.896C201.256 22.896 200.851 22.992 200.478 23.184C200.115 23.3653 199.822 23.6267 199.598 23.968C199.374 24.3093 199.262 24.6933 199.262 25.12ZM199.646 29.68H200.862V31.152H203.422V29.68H204.638V35.6H199.646V29.68ZM203.422 34.544V32.208H200.862V34.544H203.422ZM205.006 34.56C205.923 34.2187 206.574 33.7013 206.958 33.008C207.342 32.3147 207.534 31.6107 207.534 30.896V29.392H208.75V30.944C208.75 31.4027 208.84 31.856 209.022 32.304C209.214 32.7413 209.475 33.1413 209.806 33.504C210.222 33.9627 210.718 34.3093 211.294 34.544L210.718 35.6C210.12 35.408 209.608 35.0987 209.182 34.672C208.744 34.2347 208.403 33.6693 208.158 32.976C207.667 34.2773 206.803 35.152 205.566 35.6L205.006 34.56ZM206.158 24.512H208.366V21.12H209.614V28.48H208.366V25.568H206.158V24.512ZM213.884 25.936C213.884 25.2213 214.076 24.5813 214.46 24.016C214.855 23.4507 215.426 23.008 216.172 22.688C216.919 22.368 217.81 22.208 218.844 22.208C219.879 22.208 220.77 22.368 221.516 22.688C222.263 23.008 222.828 23.4507 223.212 24.016C223.596 24.5813 223.788 25.2213 223.788 25.936C223.788 26.6507 223.596 27.2907 223.212 27.856C222.828 28.4213 222.263 28.864 221.516 29.184C220.77 29.504 219.879 29.664 218.844 29.664C217.81 29.664 216.919 29.504 216.172 29.184C215.426 28.864 214.855 28.4213 214.46 27.856C214.076 27.2907 213.884 26.6507 213.884 25.936ZM212.188 32.768H225.5V33.856H212.188V32.768ZM215.148 25.936C215.148 26.416 215.298 26.8533 215.596 27.248C215.895 27.6427 216.322 27.9573 216.876 28.192C217.442 28.416 218.098 28.528 218.844 28.528C219.591 28.528 220.242 28.416 220.796 28.192C221.362 27.9573 221.788 27.6427 222.076 27.248C222.375 26.8533 222.524 26.416 222.524 25.936C222.524 25.456 222.375 25.0187 222.076 24.624C221.778 24.2293 221.351 23.92 220.796 23.696C220.242 23.4613 219.591 23.344 218.844 23.344C218.098 23.344 217.442 23.4613 216.876 23.696C216.322 23.92 215.895 24.2293 215.596 24.624C215.298 25.0187 215.148 25.456 215.148 25.936ZM227.051 29.056C227.755 28.7573 228.395 28.3413 228.971 27.808C229.558 27.2747 230.022 26.6667 230.363 25.984C230.704 25.3013 230.875 24.5867 230.875 23.84V21.952H232.123V23.888C232.123 24.4213 232.278 24.9973 232.587 25.616C232.907 26.2347 233.286 26.752 233.723 27.168C234.032 27.4667 234.374 27.7333 234.747 27.968C235.12 28.192 235.483 28.3733 235.835 28.512L235.339 29.568C234.411 29.2053 233.622 28.6987 232.971 28.048C232.331 27.3867 231.867 26.6773 231.579 25.92C230.971 27.7013 229.675 29.0773 227.691 30.048L227.051 29.056ZM230.363 31.056H231.611V34.528H239.451V35.6H230.363V31.056ZM237.803 21.12H239.051V31.344H237.803V21.12ZM248.874 22.496V23.456C248.874 27.5307 246.73 30.64 242.442 32.784L241.754 31.84C243.877 30.8267 245.381 29.616 246.266 28.208C247.162 26.8 247.61 25.3653 247.61 23.904V23.552H242.234V22.496H248.874ZM251.85 21.12H253.098V26.624H255.322V27.68H253.098V35.424H251.85V21.12ZM258.041 25.728C258.041 25.024 258.238 24.3947 258.633 23.84C259.038 23.2747 259.614 22.8373 260.361 22.528C261.107 22.208 261.987 22.048 263.001 22.048C264.014 22.048 264.894 22.208 265.641 22.528C266.387 22.8373 266.958 23.2747 267.353 23.84C267.747 24.3947 267.945 25.024 267.945 25.728C267.945 26.432 267.747 27.0667 267.353 27.632C266.958 28.1867 266.387 28.624 265.641 28.944C264.894 29.2533 264.014 29.408 263.001 29.408C261.987 29.408 261.107 29.2533 260.361 28.944C259.614 28.624 259.038 28.1867 258.633 27.632C258.238 27.0667 258.041 26.432 258.041 25.728ZM256.345 32.8H259.801L259.657 30.992V29.888H260.905V32.8H265.161V29.888H266.409V30.992L266.265 32.8H269.657V33.856H256.345V32.8ZM259.305 25.728C259.305 26.208 259.459 26.6507 259.769 27.056C260.078 27.4507 260.51 27.7653 261.065 28C261.63 28.224 262.275 28.336 263.001 28.336C263.726 28.336 264.366 28.224 264.921 28C265.486 27.7653 265.918 27.4507 266.217 27.056C266.526 26.6507 266.681 26.208 266.681 25.728C266.681 25.248 266.526 24.8107 266.217 24.416C265.918 24.0107 265.486 23.696 264.921 23.472C264.366 23.2373 263.726 23.12 263.001 23.12C262.275 23.12 261.63 23.2373 261.065 23.472C260.51 23.696 260.078 24.0107 259.769 24.416C259.459 24.8107 259.305 25.248 259.305 25.728ZM271.239 25.216C271.239 24.64 271.383 24.1013 271.671 23.6C271.97 23.088 272.407 22.6773 272.983 22.368C273.57 22.048 274.279 21.888 275.111 21.888C276.178 21.888 277.015 22.16 277.623 22.704C278.231 23.2373 278.535 23.9893 278.535 24.96C278.535 25.4507 278.461 25.8773 278.311 26.24C278.162 26.592 277.97 26.8907 277.735 27.136C277.511 27.3707 277.229 27.6213 276.887 27.888C276.482 28.208 276.178 28.4747 275.975 28.688C275.773 28.8907 275.613 29.1253 275.495 29.392C275.389 29.648 275.335 29.968 275.335 30.352V31.424H274.151V30.32C274.151 29.6693 274.279 29.0987 274.535 28.608C274.802 28.1173 275.239 27.664 275.847 27.248C276.295 26.9387 276.637 26.5973 276.871 26.224C277.106 25.8507 277.223 25.4133 277.223 24.912C277.223 24.2507 277.026 23.7653 276.631 23.456C276.247 23.136 275.714 22.976 275.031 22.976C274.146 22.976 273.511 23.2053 273.127 23.664C272.743 24.112 272.583 24.6613 272.647 25.312L271.255 25.488L271.239 25.216ZM274.119 32.976H275.367V34.48H274.119V32.976Z" fill="#266CF4"/>
</svg>
