<svg width="170" height="40" viewBox="0 0 170 40" fill="none" xmlns="http://www.w3.org/2000/svg">
<path d="M56.725 4.37317L37.9824 39.5973H29.2236L26.1382 15.9011L13.327 39.5973H4.50374L0 4.37317H8.10488L11.2455 29.1307L24.5633 4.37317H32.1616L35.201 29.332L48.574 4.37317H56.725Z" fill="#272727"/>
<path d="M71.8755 12.1224V19.3685C71.2216 19.3136 70.7151 19.2679 70.1072 19.2679C65.7508 19.2679 62.8681 21.6284 62.8681 26.8159V39.5973H54.9658V12.525H62.5089V16.0932C64.4338 13.4765 67.6757 12.1224 71.8755 12.1224Z" fill="#272727"/>
<path d="M74.6113 4.37328C74.6113 1.91217 76.5915 0 79.5203 0C82.4491 0 84.4293 1.81153 84.4293 4.2269C84.4293 6.84354 82.4583 8.75571 79.5203 8.75571C76.5823 8.75571 74.6113 6.84354 74.6113 4.38243V4.37328ZM75.5692 12.5252H83.4714V39.5974H75.5692V12.5252Z" fill="#272727"/>
<path d="M107.39 38.2892C105.769 39.442 103.393 40.0001 100.961 40.0001C94.5328 40.0001 90.7843 36.7339 90.7843 30.2929V19.1767H86.5845V13.1383H90.7843V6.54175H98.6865V13.1291H105.474V19.1675H98.6865V30.1831C98.6865 32.4978 99.9575 33.7512 102.076 33.7512C103.246 33.7512 104.406 33.3944 105.263 32.7448L107.39 38.2801V38.2892Z" fill="#272727"/>
<path d="M107.952 26.0657C107.952 17.9138 114.279 12.1316 122.946 12.1316C131.612 12.1316 137.884 17.9138 137.884 26.0657C137.884 34.2176 131.603 39.9998 122.946 39.9998C114.288 39.9998 107.952 34.2176 107.952 26.0657ZM129.881 26.0657C129.881 21.3905 126.897 18.5726 122.946 18.5726C118.995 18.5726 115.955 21.3905 115.955 26.0657C115.955 30.7409 118.995 33.5588 122.946 33.5588C126.897 33.5588 129.881 30.7409 129.881 26.0657Z" fill="#272727"/>
<path d="M170 24.0986V39.5973H162.098V25.3063C162.098 20.933 160.071 18.9202 156.581 18.9202C152.786 18.9202 150.051 21.235 150.051 26.2121V39.5973H142.148V12.525H149.692V15.6906C151.819 13.3759 155.006 12.1224 158.708 12.1224C165.137 12.1224 170 15.8461 170 24.0986Z" fill="#272727"/>
</svg>
