<svg width="168" height="103" viewBox="0 0 168 103" fill="none" xmlns="http://www.w3.org/2000/svg">
<g clip-path="url(#clip0_508_2782)">
<path d="M11.2267 101.004L40.2558 46.7552L36.4601 15.9976C35.2305 6.01567 26.1021 -1.09145 16.0649 0.132999C6.04104 1.37076 -1.09596 10.4609 0.133637 20.4429L10.3045 102.88H10.358C10.6119 102.241 10.8926 101.616 11.2267 101.004Z" fill="#266CF4"/>
<path d="M97.4186 17.4351L70.1537 68.3827L74.4038 102.814L104.368 46.8218L99.4902 7.2402C99.811 10.6607 99.1694 14.2009 97.4186 17.4617V17.4351Z" fill="#266CF4"/>
<path d="M99.3967 6.46827L99.2631 5.40353H99.2363C99.3032 5.74957 99.3566 6.10892 99.3967 6.46827Z" fill="#266CF4"/>
<path d="M51.6964 102.88L70.1537 68.3827L62.5622 6.77438C62.5088 6.30856 62.4821 5.85605 62.4687 5.40353H62.4019L40.2692 46.7553L47.1923 102.88H51.7097H51.6964Z" fill="#266CF4"/>
<path d="M99.3967 6.46829L99.4903 7.22692C99.4636 6.97404 99.4368 6.72117 99.3967 6.46829Z" fill="#266CF4"/>
<path d="M10.3714 102.88H47.1924L40.2692 46.7553L11.2268 101.004C10.8926 101.616 10.612 102.241 10.358 102.88H10.3714Z" fill="#266CF4"/>
<path d="M10.3714 102.88H47.1924L40.2692 46.7553L11.2268 101.004C10.8926 101.616 10.612 102.241 10.358 102.88H10.3714Z" fill="#135FF3"/>
<path d="M99.4902 7.2269L99.3967 6.46827C99.3432 6.10892 99.3031 5.76288 99.2363 5.40353H62.4688C62.4955 5.85605 62.5088 6.30856 62.5623 6.77438L70.1671 68.3827L97.4186 17.4351C99.1561 14.1743 99.7976 10.6341 99.4902 7.21359V7.2269Z" fill="#266CF4"/>
<path d="M99.4902 7.2269L99.3967 6.46827C99.3432 6.10892 99.3031 5.76288 99.2363 5.40353H62.4688C62.4955 5.85605 62.5088 6.30856 62.5623 6.77438L70.1671 68.3827L97.4186 17.4351C99.1561 14.1743 99.7976 10.6341 99.4902 7.21359V7.2269Z" fill="#135FF3"/>
<path d="M126.528 5.40353L104.369 46.8085L111.292 102.88H115.836L168 5.40353H126.528Z" fill="#266CF4"/>
<path d="M74.3638 102.88H74.4172L74.4039 102.8L74.3638 102.88Z" fill="#266CF4"/>
<path d="M74.4172 102.88H111.292L104.368 46.8085L74.4038 102.8L74.4172 102.88Z" fill="#266CF4"/>
<path d="M74.4172 102.88H111.292L104.368 46.8085L74.4038 102.8L74.4172 102.88Z" fill="#135FF3"/>
<path d="M62.4554 5.28375L62.3885 5.40354H62.4554C62.4554 5.40354 62.4554 5.32368 62.4554 5.28375Z" fill="white"/>
<path d="M10.3713 102.88H10.3179V103C10.3179 103 10.358 102.92 10.3713 102.88Z" fill="white"/>
</g>
<defs>
<clipPath id="clip0_508_2782">
<rect width="168" height="103" fill="white"/>
</clipPath>
</defs>
</svg>
